# xmcd
#
# Track frame offsets: 
#        150
#        23327
#        47402
#        80177
#        98330
#        124125
#        144302
#        159602
#        183527
#        197700
#        211815
#        229407
#        253065
#        276852
#        297927
#
# Disc length: 4208 seconds
#
# Revision: 1
# Processed by: cddbd v1.5.2PL0 Copyright (c) Steve Scherf et al.
# Submitted via: ExactAudioCopy v0.99pb4
#
DISCID=d1106e0f
DTITLE=Sunnyland Slim Blues Band - Decoration Day
DYEAR=1994
DGENRE=Blues
TTITLE0=The Sun Is Going Down
TTITLE1=Past Life
TTITLE2=Decoration Day
TTITLE3=Boogie'n the Blues
TTITLE4=Depression Blues
TTITLE5=Tired of Traveling
TTITLE6=Canadian Walk
TTITLE7=Patience Like Jobe
TTITLE8=Sunnyland Jump
TTITLE9=Rock Little Daddy
TTITLE10=Everytime I Get to Drinking
TTITLE11=Sunnyland's New Orleans Boogie
TTITLE12=One Room Country Shack
TTITLE13=Tin Pan Alley
TTITLE14=Dust My Broom
EXTD=YEAR: 1994
EXTT0=
EXTT1=
EXTT2=
EXTT3=
EXTT4=
EXTT5=
EXTT6=
EXTT7=
EXTT8=
EXTT9=
EXTT10=
EXTT11=
EXTT12=
EXTT13=
EXTT14=
PLAYORDER=
